<svg xmlns="http://www.w3.org/2000/svg" width="20.012" height="20.013" viewBox="0 0 20.012 20.013">
  <path id="path2" d="M13.8,0a.391.391,0,0,0-.364.289L11.314,8.207a.39.39,0,0,0,.478.478l7.919-2.122a.39.39,0,0,0,.276-.478A8.612,8.612,0,0,0,13.914.012.39.39,0,0,0,13.8,0Zm.287.878a7.833,7.833,0,0,1,5.036,5.036L12.243,7.756ZM8.5,2.808A8.589,8.589,0,1,0,16.9,9.175a.39.39,0,0,0-.478-.276L9.153,10.846,11.1,3.58a.39.39,0,0,0-.276-.478A9.345,9.345,0,0,0,8.5,2.808Zm.1.782a7.811,7.811,0,0,1,1.641.174L8.356,10.805,2.045,7.162A7.808,7.808,0,0,1,8.6,3.59ZM1.654,7.837l6.557,3.786V19.2A7.806,7.806,0,0,1,1.654,7.837ZM16.234,9.757a7.847,7.847,0,0,1-3.4,8.2L9.194,11.643Zm-7.243,3.1,3.17,5.491a7.752,7.752,0,0,1-3.17.85Z" transform="translate(-0.001 0.002)" fill="#fff"/>
</svg>
