<svg xmlns="http://www.w3.org/2000/svg" width="20" height="20" viewBox="0 0 20 20">
  <path id="category" d="M2.344,0A2.346,2.346,0,0,0,0,2.344V6.875A2.346,2.346,0,0,0,2.344,9.219H6.875A2.346,2.346,0,0,0,9.219,6.875V2.344A2.346,2.346,0,0,0,6.875,0ZM13.125,0a2.346,2.346,0,0,0-2.344,2.344V6.875a2.346,2.346,0,0,0,2.344,2.344h4.531A2.346,2.346,0,0,0,20,6.875V2.344A2.346,2.346,0,0,0,17.656,0ZM2.344,1.563H6.875a.782.782,0,0,1,.781.781V6.875a.782.782,0,0,1-.781.781H2.344a.782.782,0,0,1-.781-.781V2.344A.782.782,0,0,1,2.344,1.563Zm10.781,0h4.531a.782.782,0,0,1,.781.781V6.875a.782.782,0,0,1-.781.781H13.125a.782.782,0,0,1-.781-.781V2.344A.782.782,0,0,1,13.125,1.563ZM2.344,10.781A2.346,2.346,0,0,0,0,13.125v4.531A2.346,2.346,0,0,0,2.344,20H6.875a2.346,2.346,0,0,0,2.344-2.344V13.125a2.346,2.346,0,0,0-2.344-2.344Zm10.781,0a2.346,2.346,0,0,0-2.344,2.344v4.531A2.346,2.346,0,0,0,13.125,20h4.531A2.346,2.346,0,0,0,20,17.656V13.125a2.346,2.346,0,0,0-2.344-2.344ZM2.344,12.344H6.875a.782.782,0,0,1,.781.781v4.531a.782.782,0,0,1-.781.781H2.344a.782.782,0,0,1-.781-.781V13.125A.782.782,0,0,1,2.344,12.344Zm10.781,0h4.531a.782.782,0,0,1,.781.781v4.531a.782.782,0,0,1-.781.781H13.125a.782.782,0,0,1-.781-.781V13.125A.782.782,0,0,1,13.125,12.344Z" fill="#fff"/>
</svg>
