<svg xmlns="http://www.w3.org/2000/svg" width="20" height="17.898" viewBox="0 0 20 17.898">
  <path id="dompet-icon" d="M2.7,26.656a2.7,2.7,0,0,0-2.7,2.7v12.5a2.7,2.7,0,0,0,2.7,2.7H17.3a2.7,2.7,0,0,0,2.7-2.7V31.747a2.705,2.705,0,0,0-1.971-2.6,2.7,2.7,0,0,0-2.692-2.49Zm0,1.262H15.337a1.441,1.441,0,0,1,1.4,1.128H2.7a2.684,2.684,0,0,0-1.439.417v-.106A1.441,1.441,0,0,1,2.7,27.918Zm0,2.389H17.3a1.441,1.441,0,0,1,1.439,1.439v2.2H14.716a2.891,2.891,0,0,0,0,5.782h4.023v2.123A1.441,1.441,0,0,1,17.3,43.293H2.7a1.441,1.441,0,0,1-1.439-1.439V31.747A1.441,1.441,0,0,1,2.7,30.307Zm12.015,4.9h4.023v3.259H14.716a1.629,1.629,0,0,1,0-3.259Z" transform="translate(0 -26.656)" fill="#fff"/>
</svg>
