<svg xmlns="http://www.w3.org/2000/svg" width="20" height="17.692" viewBox="0 0 20 17.692">
  <path id="transaksi" d="M19.934,38.117a.577.577,0,0,0-.511-.308h-.6A8.849,8.849,0,0,0,1.453,36.092L.1,38.058a.577.577,0,0,0,.475.9h.6a8.849,8.849,0,0,0,17.375,1.716L19.9,38.712A.577.577,0,0,0,19.934,38.117ZM15.44,43.824A7.692,7.692,0,0,1,2.308,38.385a.577.577,0,0,0-.577-.577H1.674l.787-1.145h0l.231-.337.651.946h0l.368.535H3.654a.577.577,0,0,0-.577.577,6.923,6.923,0,0,0,13.287,2.723l.468.681a.577.577,0,0,0,.042.053h0A7.731,7.731,0,0,1,15.44,43.824ZM5.283,38.058l-.841-1.223a5.77,5.77,0,0,1,11.3.973h-.548a.577.577,0,0,0-.475.9l.841,1.223a5.77,5.77,0,0,1-11.3-.973h.548a.577.577,0,0,0,.475-.9ZM17.54,40.107h0l-.231.337-.651-.946h0l-.368-.535h.057a.577.577,0,0,0,.577-.577A6.923,6.923,0,0,0,3.636,35.663l-.468-.681a.577.577,0,0,0-.042-.053h0a7.729,7.729,0,0,1,1.435-1.981,7.692,7.692,0,0,1,13.132,5.439.577.577,0,0,0,.577.577h.057Z" transform="translate(0 -29.539)" fill="#fff"/>
</svg>
